<?xml version="1.0" encoding="utf-8"?>
<svg version="1.1" xmlns="http://www.w3.org/2000/svg" xmlns:xlink="http://www.w3.org/1999/xlink" width="32" height="224" viewBox="0 0 32 224">
<svg id="icon-book" width="32" height="32" viewBox="0 0 32 32" >
<path fill="none" stroke-linejoin="round" stroke-linecap="butt" stroke-miterlimit="4" stroke-width="3" stroke="#000" d="M24.52 4c-2.98 0-4.48 0-5.62 0.58-1 0.5-1.82 1.32-2.32 2.32-0.58 1.14-0.58 2.64-0.58 5.62v15.48l0.12-0.22c0.92-1.38 1.4-2.080 2-2.58 0.54-0.44 1.18-0.78 1.84-0.98 0.76-0.22 1.6-0.22 3.26-0.22h1.84c1.5 0 2.24 0 2.8-0.3 0.5-0.26 0.92-0.66 1.18-1.16 0.28-0.58 0.28-1.32 0.28-2.82v-11.46c0-1.5 0-2.24-0.28-2.82-0.26-0.5-0.68-0.9-1.18-1.16-0.56-0.28-1.3-0.28-2.8-0.28h-0.54zM7.46 4c2.98 0 4.48 0 5.62 0.58 1 0.5 1.82 1.32 2.32 2.32 0.6 1.14 0.6 2.64 0.6 5.62v15.48l-0.14-0.22c-0.92-1.38-1.4-2.080-2-2.58-0.54-0.44-1.18-0.78-1.84-0.98-0.76-0.22-1.6-0.22-3.26-0.22h-1.84c-1.5 0-2.24 0-2.8-0.3-0.5-0.26-0.92-0.66-1.18-1.16-0.28-0.58-0.28-1.32-0.28-2.82v-11.46c0-1.5 0-2.24 0.28-2.82 0.26-0.5 0.68-0.9 1.18-1.16 0.56-0.28 1.3-0.28 2.8-0.28h0.54z"></path>
</svg>
<svg id="icon-online" width="32" height="32" viewBox="0 0 32 32" >
<path fill="#fff" d="M32 16c0 8.837-7.163 16-16 16s-16-7.163-16-16c0-8.837 7.163-16 16-16s16 7.163 16 16z"></path>
<path fill="#38cd3e" d="M26.667 16c0 5.891-4.776 10.667-10.667 10.667s-10.667-4.776-10.667-10.667c0-5.891 4.776-10.667 10.667-10.667s10.667 4.776 10.667 10.667z"></path>
</svg>
<svg id="icon-heart" width="32" height="32" viewBox="0 0 32 32" >
<path fill="none" stroke-linejoin="round" stroke-linecap="butt" stroke-miterlimit="4" stroke-width="2.4615" stroke="#000" d="M25.403 4.554c-0.886-0.369-1.846-0.566-2.806-0.566-2.027 0.011-3.86 0.832-5.194 2.154l0.001-0.001-1.403 1.415-1.415-1.415c-1.326-1.331-3.161-2.154-5.188-2.154s-3.862 0.824-5.187 2.154l-0 0c-1.331 1.326-2.154 3.161-2.154 5.188s0.824 3.862 2.154 5.187l1.416 1.416 10.375 10.363 11.778-11.778c0.689-0.689 1.218-1.489 1.588-2.388 0.369-0.886 0.566-1.834 0.566-2.806 0-0.96-0.197-1.908-0.566-2.806-0.369-0.886-0.898-1.698-1.588-2.375-0.677-0.677-1.489-1.218-2.375-1.588z"></path>
</svg>
<svg id="icon-star" width="32" height="32" viewBox="0 0 32 32">
<path fill="#ffc531" d="M15.1 1.66l-3.78 7.16c-0.14 0.28-0.4 0.46-0.7 0.52l-7.98 1.38c-0.8 0.14-1.1 1.1-0.54 1.68l5.64 5.8c0.22 0.24 0.32 0.54 0.26 0.84l-1.14 8.020c-0.12 0.8 0.7 1.4 1.42 1.040l7.26-3.58c0.28-0.12 0.62-0.12 0.9 0l7.26 3.58c0.72 0.36 1.54-0.24 1.42-1.040l-1.14-8.020c-0.060-0.3 0.040-0.6 0.26-0.84l5.64-5.8c0.56-0.58 0.26-1.54-0.54-1.68l-7.98-1.38c-0.308-0.057-0.561-0.251-0.697-0.515l-0.003-0.005-3.78-7.16c-0.176-0.316-0.509-0.526-0.89-0.526s-0.714 0.21-0.887 0.521l-0.003 0.005z"></path>
<path fill="#ffc531" d="M11.32 8.82l3.783-7.165c0.174-0.311 0.506-0.521 0.887-0.521s0.714 0.21 0.89 0.526l3.783 7.165c0.137 0.264 0.39 0.457 0.697 0.515l7.98 1.38c0.8 0.14 1.1 1.1 0.54 1.68l-5.64 5.8c-0.22 0.24-0.32 0.54-0.26 0.84l1.14 8.020c0.12 0.8-0.7 1.4-1.42 1.040l-7.26-3.58c-0.28-0.12-0.62-0.12-0.9 0l-7.26 3.58c-0.72 0.36-1.54-0.24-1.42-1.040l1.14-8.020c0.060-0.3-0.040-0.6-0.26-0.84l-5.64-5.8c-0.56-0.58-0.26-1.54 0.54-1.68l7.98-1.38c0.3-0.060 0.56-0.24 0.7-0.52zM13.46 9.94c-0.5 0.94-1.4 1.58-2.44 1.76l-5.36 0.94 3.8 3.9c0.74 0.76 1.080 1.8 0.92 2.84l-0.78 5.4 4.88-2.4c0.96-0.48 2.060-0.48 3.020 0l4.88 2.4-0.78-5.4c-0.16-1.040 0.18-2.080 0.92-2.84l3.8-3.9-5.36-0.94c-1.040-0.18-1.94-0.82-2.44-1.76l-2.52-4.8-2.54 4.8z"></path>
</svg>
<svg id="icon-log-in" width="32" height="32" viewBox="0 0 32 32" >
<path fill="none" stroke="#9fb7ce" stroke-linejoin="round" stroke-linecap="round" stroke-miterlimit="4" stroke-width="3.2" d="M20 4h1.6c2.24 0 3.36 0 4.208 0.432 0.752 0.384 1.36 0.992 1.744 1.744 0.448 0.848 0.448 1.968 0.448 4.224v11.2c0 2.24 0 3.36-0.448 4.208-0.384 0.752-0.992 1.36-1.744 1.744-0.848 0.448-1.968 0.448-4.208 0.448h-1.6M13.328 9.328l6.672 6.672-6.672 6.656M4 16h16"></path>
</svg>
<svg id="icon-ukraine" width="32" height="32" viewBox="0 0 32 32" >
<path fill="#ffda44" d="M32 16c0 8.834-7.166 16-16 16-8.846 0-16-7.166-16-16 0-8.846 7.154-16 16-16 8.834 0 16 7.154 16 16z"></path>
<path fill="#338af3" d="M0 16c0-8.846 7.154-16 16-16 8.834 0 16 7.154 16 16h-32z"></path>
</svg>
<svg id="icon-heart-filled" width="32" height="32" viewBox="0 0 32 32" >
<path fill="#9fb7ce" d="M28.532 4.983c-1.434-1.434-3.416-2.321-5.604-2.321-0.004 0-0.008 0-0.012 0h0.001c-0.003 0-0.008 0-0.012 0-2.188 0-4.17 0.887-5.604 2.321l-1.534 1.534-1.534-1.534c-1.435-1.434-3.417-2.321-5.606-2.321-0.008 0-0.016 0-0.024 0h0.001c-0.004 0-0.009 0-0.013 0-4.376 0-7.923 3.547-7.923 7.923 0 0.009 0 0.019 0 0.028v-0.001c0 2.108 0.827 4.122 2.321 5.616l12.778 12.779 11.245-11.245 1.521-1.534c1.441-1.421 2.334-3.395 2.334-5.577 0-0.013-0-0.027-0-0.040v0.002c0-0.015 0-0.033 0-0.052 0-2.183-0.893-4.157-2.334-5.576l-0.001-0.001z"></path>
<path fill="none" stroke="#9fb7ce" stroke-linejoin="round" stroke-linecap="butt" stroke-miterlimit="4" stroke-width="1.3333" d="M25.957 3.262c-0.96-0.4-2.001-0.6-3.041-0.6-0.003 0-0.008 0-0.012 0-2.188 0-4.17 0.887-5.604 2.321l-1.534 1.534-1.534-1.534c-1.435-1.434-3.417-2.321-5.606-2.321-0.008 0-0.016 0-0.024 0h0.001c-0.004 0-0.009 0-0.013 0-4.376 0-7.923 3.547-7.923 7.923 0 0.009 0 0.019 0 0.028v-0.001c0 2.108 0.827 4.122 2.321 5.616l12.778 12.779 11.245-11.245 1.521-1.534c1.441-1.421 2.334-3.395 2.334-5.577 0-0.013-0-0.027-0-0.040v0.002c0-0.015 0-0.033 0-0.052 0-2.183-0.893-4.157-2.334-5.576l-0.001-0.001c-0.734-0.734-1.614-1.321-2.574-1.721z"></path>
</svg>
<symbol id="icon-eye" viewBox="0 0 32 32">
<path stroke-linejoin="round" stroke-linecap="round" stroke-miterlimit="4" stroke-width="2.88" d="M1.333 16s5.333-10.667 14.667-10.667c9.333 0 14.666 10.667 14.666 10.667s-5.333 10.667-14.666 10.667c-9.334 0-14.667-10.667-14.667-10.667z"></path>
<path stroke-linejoin="round" stroke-linecap="round" stroke-miterlimit="4" stroke-width="2.88" d="M16 20c2.209 0 4-1.791 4-4s-1.791-4-4-4v0c-2.209 0-4 1.791-4 4s1.791 4 4 4v0z"></path>
</symbol>
<symbol id="icon-eye-off" viewBox="0 0 32 32">
<path stroke-linejoin="round" stroke-linecap="round" stroke-miterlimit="4" stroke-width="2.88" d="M23.92 23.92c-2.175 1.672-4.923 2.697-7.908 2.747l-0.012 0c-9.334 0-14.667-10.667-14.667-10.667 1.713-3.152 3.978-5.791 6.689-7.877l0.058-0.043M13.2 5.653c0.833-0.203 1.788-0.32 2.771-0.32 0.010 0 0.020 0 0.030 0h-0.002c9.333 0 14.666 10.667 14.666 10.667-0.871 1.615-1.827 3.008-2.91 4.289l0.030-0.036M18.826 18.827c-0.732 0.782-1.77 1.269-2.922 1.269-2.209 0-4-1.791-4-4 0-1.152 0.487-2.191 1.267-2.921l0.002-0.002M1.333 1.333l29.333 29.334"></path>
</symbol>
</svg>
